<?xml version="1.0" standalone="no"?>
<!DOCTYPE svg PUBLIC "-//W3C//DTD SVG 20010904//EN"
 "http://www.w3.org/TR/2001/REC-SVG-20010904/DTD/svg10.dtd">
<svg version="1.0" xmlns="http://www.w3.org/2000/svg"
 width="1024.000000pt" height="1024.000000pt" viewBox="0 0 1024.000000 1024.000000"
 preserveAspectRatio="xMidYMid meet">

<g transform="translate(0.000000,1024.000000) scale(0.100000,-0.100000)"
fill="#000000" stroke="none">
<path d="M1540 6960 c-20 -6 -21 -8 -5 -8 11 -1 38 3 60 7 l40 9 -35 0 c-19 0
-46 -4 -60 -8z"/>
<path d="M1478 6943 c6 -2 18 -2 25 0 6 3 1 5 -13 5 -14 0 -19 -2 -12 -5z"/>
<path d="M1333 6915 c-50 -13 -108 -32 -130 -43 -21 -11 -62 -27 -90 -36 -29
-10 -63 -26 -75 -37 -23 -20 -23 -20 17 -1 66 32 231 91 323 117 112 30 76 30
-45 0z"/>
<path d="M1720 6893 c-462 -46 -883 -247 -1190 -569 -41 -44 -97 -108 -124
-144 -59 -79 -144 -255 -119 -248 4 1 18 -1 31 -6 30 -10 29 -44 -4 -108 -42
-82 -103 -283 -125 -408 -87 -503 28 -982 335 -1384 183 -241 486 -465 764
-566 34 -13 61 -25 58 -27 -2 -2 -44 11 -93 30 -506 196 -895 621 -1046 1143
-54 187 -62 246 -62 483 0 118 -1 207 -3 198 -5 -24 -21 -21 -31 5 -7 20 -9
19 -14 -12 -24 -138 -15 -400 18 -565 8 -38 17 -86 20 -105 19 -112 134 -369
228 -511 232 -348 558 -600 947 -732 395 -133 808 -124 1215 28 409 152 773
480 974 878 99 194 185 486 184 622 0 64 1 71 6 35 6 -38 8 -41 14 -20 7 27
14 106 23 260 5 74 2 107 -10 143 -9 26 -16 67 -16 91 0 57 -36 224 -55 253
-17 25 -41 32 -32 9 3 -7 14 -44 26 -82 40 -139 53 -235 56 -419 3 -165 2
-170 -5 -60 -4 66 -8 137 -9 157 -1 31 -4 36 -18 31 -10 -4 -12 -8 -5 -11 8
-2 5 -10 -7 -23 -16 -17 -19 -44 -24 -197 -19 -564 -243 -1011 -677 -1353
-108 -85 -377 -233 -460 -253 l-25 -6 25 11 c306 142 406 206 583 378 227 220
389 485 465 761 52 188 66 296 67 505 0 172 -3 215 -23 310 -28 131 -78 286
-127 392 -20 42 -33 84 -30 94 6 17 40 35 58 31 10 -3 10 -5 -14 63 -28 80
-113 198 -232 322 -169 175 -319 284 -532 388 -144 70 -335 135 -465 159 -169
30 -388 42 -520 29z m318 -104 c155 -16 334 -56 455 -100 192 -71 377 -174
377 -210 0 -31 -18 -31 -63 0 -72 49 -256 137 -367 174 -221 75 -467 107 -686
88 -298 -26 -555 -108 -773 -248 -71 -45 -91 -48 -91 -13 0 12 23 33 63 58
304 192 728 290 1085 251z m10 -189 c115 -15 252 -51 376 -101 112 -44 137
-62 118 -81 -8 -8 -29 -3 -80 20 -358 165 -763 174 -1127 23 -97 -40 -115 -42
-115 -17 0 24 174 94 310 125 175 40 357 51 518 31z m-204 -125 c7 -20 3 -21
-114 -34 -186 -22 -349 -76 -492 -162 -51 -31 -72 -39 -80 -31 -20 20 20 51
137 108 155 75 360 131 491 133 38 1 53 -3 58 -14z m237 0 c89 -15 279 -74
341 -106 26 -13 38 -26 38 -40 0 -13 -5 -19 -12 -16 -199 85 -324 121 -456
132 -45 4 -85 12 -88 16 -19 32 46 37 177 14z m679 -50 c40 -21 60 -53 60 -95
0 -33 7 -42 65 -89 96 -78 228 -223 297 -325 150 -225 227 -449 248 -720 22
-282 -28 -549 -150 -801 -45 -92 -143 -255 -155 -255 -2 0 13 28 35 62 22 34
37 65 32 70 -20 20 -63 -11 -123 -92 -112 -149 -293 -313 -441 -400 -58 -34
-45 -18 20 25 133 88 313 258 398 375 116 159 197 333 250 537 34 127 37 152
41 313 6 192 -5 281 -52 445 -75 259 -205 469 -410 663 -78 74 -91 83 -114 76
-42 -13 -87 -9 -115 9 -128 84 -22 272 114 202z m-1949 -11 c17 -21 0 -49 -31
-49 -31 0 -48 28 -31 49 8 9 21 16 31 16 10 0 23 -7 31 -16z m376 -4 c4 -22
-1 -27 -112 -110 -54 -41 -151 -127 -215 -190 -210 -209 -328 -420 -397 -710
-37 -154 -43 -408 -15 -575 69 -401 308 -771 654 -1012 33 -23 64 -46 67 -49
15 -18 -83 43 -145 89 -109 82 -348 328 -335 344 3 4 -2 1 -11 -6 -15 -11 -22
-9 -49 13 -17 14 -34 24 -39 21 -12 -8 -84 118 -134 235 -111 261 -151 589
-106 870 31 188 117 409 221 565 131 197 265 330 469 466 102 68 142 81 147
49z m1814 4 c17 -21 0 -49 -31 -49 -31 0 -48 28 -31 49 8 9 21 16 31 16 10 0
23 -7 31 -16z m-2273 -75 c1 -8 -31 -50 -73 -93 -75 -77 -180 -208 -205 -256
-36 -69 -61 -99 -75 -94 -8 4 -15 14 -15 23 0 41 131 225 255 359 75 80 106
97 113 61z m2429 -71 c99 -102 165 -188 220 -286 33 -58 34 -65 20 -80 -9 -9
-18 -14 -20 -11 -3 2 -28 42 -57 89 -65 106 -145 204 -227 279 -59 54 -73 78
-56 94 15 16 34 2 120 -85z m-619 -11 c2 -9 -4 -20 -13 -23 -20 -8 -50 19 -40
36 10 17 49 8 53 -13z m-1418 -35 c0 -4 -28 -35 -62 -69 -63 -63 -98 -79 -98
-45 0 24 126 133 145 125 8 -3 15 -8 15 -11z m780 -37 c16 -8 36 -25 44 -37
20 -28 21 -98 1 -124 -12 -16 -14 -72 -15 -324 l0 -304 -125 -126 c-117 -119
-125 -129 -125 -166 0 -47 26 -92 73 -128 28 -21 45 -26 94 -26 l61 0 55 -57
c101 -107 127 -140 127 -163 0 -17 -33 -55 -115 -133 l-115 -109 -2 -257 c-1
-141 -4 -222 -7 -181 l-6 75 -13 -60 c-19 -84 -19 -90 -3 -90 8 0 16 -6 19
-13 3 -10 -4 -13 -24 -10 l-29 3 -3 260 c-1 169 1 269 8 286 6 14 58 72 115
129 l105 103 -71 78 c-65 73 -89 92 -89 71 0 -4 8 -18 17 -32 10 -14 17 -43
17 -71 0 -42 -5 -52 -55 -108 -42 -48 -59 -61 -79 -59 -41 5 -34 32 19 86 38
37 51 56 51 78 -1 47 -46 111 -96 137 -46 24 -102 91 -114 138 -24 88 4 143
136 268 l104 98 0 282 0 281 -24 0 c-36 0 -84 45 -92 87 -9 48 17 100 59 118
42 18 62 18 97 0z m-230 -19 c6 -8 10 -25 8 -38 -2 -19 -9 -23 -38 -23 -29 0
-36 4 -38 23 -4 28 14 52 38 52 10 0 23 -7 30 -14z m425 -26 c0 -31 -3 -35
-27 -38 -22 -3 -30 2 -39 22 -15 33 4 58 40 54 22 -3 26 -8 26 -38z m-560 -14
c105 -44 74 -206 -40 -206 -25 0 -25 -1 -25 -95 0 -119 -11 -135 -96 -135
l-57 0 -91 -90 -92 -90 -71 0 c-70 0 -71 0 -91 -34 -43 -73 -146 -64 -185 16
-37 75 9 148 94 148 39 0 52 -5 77 -30 27 -27 37 -30 94 -30 l63 0 90 90 90
90 53 0 54 0 -6 118 c-4 64 -7 134 -8 154 -2 29 4 44 26 67 25 26 38 33 79 40
4 0 23 -5 42 -13z m757 -22 c7 -29 12 -32 56 -36 60 -6 95 -30 122 -84 26 -52
25 -99 -3 -148 -29 -51 -77 -80 -136 -80 -89 0 -152 61 -159 154 -3 49 0 60
27 98 30 40 31 43 15 66 -23 36 -4 68 39 64 25 -2 32 -9 39 -34z m-202 -315
l5 -266 105 -112 c58 -62 105 -115 105 -119 0 -4 -31 -36 -68 -71 -63 -61 -69
-64 -84 -48 -16 16 -14 20 31 66 36 36 46 54 41 67 -4 11 -45 53 -91 94 -46
41 -91 87 -99 102 -12 22 -15 76 -15 286 0 142 3 262 7 266 4 4 19 6 33 4 l25
-3 5 -266z m-369 241 c16 -9 19 -22 19 -73 l0 -63 -60 -52 -60 -53 0 -134 0
-134 -31 -36 c-17 -19 -39 -35 -49 -35 -12 0 -21 -10 -25 -29 -10 -46 -69 -91
-120 -91 -72 0 -135 61 -135 130 0 62 54 126 110 130 54 4 71 -1 110 -36 38
-35 41 -36 59 -20 17 15 18 29 13 147 l-5 131 63 58 c55 51 61 60 51 78 -15
29 -14 58 5 76 18 19 28 20 55 6z m-462 -39 c25 -25 17 -59 -15 -67 -46 -12
-72 37 -38 70 20 21 30 20 53 -3z m1372 -62 c18 -18 19 -23 6 -42 -18 -28 -40
-32 -61 -12 -20 21 -20 39 0 59 20 21 30 20 55 -5z m-1333 -91 c4 -20 -24 -48
-49 -48 -11 0 -24 11 -31 26 -11 23 -10 29 11 45 21 17 26 18 45 6 12 -8 22
-21 24 -29z m-203 8 c11 -8 18 -25 17 -44 0 -17 6 -36 14 -43 20 -16 17 -46
-5 -59 -27 -14 -26 -14 -71 29 -69 67 -72 131 -6 131 18 0 40 -6 51 -14z
m1599 -51 c85 -56 38 -195 -66 -195 -54 0 -108 51 -108 102 1 41 20 77 51 94
33 18 95 17 123 -1z m-906 -42 c2 -24 -2 -34 -18 -43 -29 -15 -59 -4 -66 26
-9 34 12 56 50 52 27 -3 31 -7 34 -35z m-1403 -3 c0 -20 -6 -26 -26 -28 -28
-3 -43 16 -32 44 3 9 15 14 32 12 20 -2 26 -8 26 -28z m3050 0 c0 -34 -50 -42
-60 -11 -9 29 3 43 33 39 21 -2 27 -8 27 -28z m-547 -58 c2 -12 -1 -22 -7 -22
-6 0 -27 -18 -47 -40 -37 -40 -68 -51 -77 -27 -6 16 94 118 113 115 8 -2 16
-13 18 -26z m-638 -1 c15 -29 13 -39 -14 -56 -31 -21 -66 -5 -66 28 0 46 59
66 80 28z m230 -6 c20 -24 3 -57 -28 -53 -27 3 -39 26 -28 54 7 18 40 18 56
-1z m-702 -114 l3 -105 -112 -110 c-61 -61 -127 -123 -147 -138 l-35 -28 -333
0 -334 0 22 -45 22 -45 160 -2 161 -3 0 -25 0 -25 -152 -3 c-84 -1 -153 -6
-153 -11 0 -18 84 -133 114 -156 74 -57 108 -65 282 -65 l162 0 51 -52 c48
-50 53 -53 102 -53 45 0 54 -4 80 -33 80 -90 -21 -214 -130 -157 -34 17 -53
58 -49 108 2 30 -4 44 -32 74 -19 21 -39 41 -45 45 -5 4 -76 8 -156 8 -172 0
-225 13 -299 71 -69 55 -112 117 -153 224 -45 116 -60 171 -52 195 6 19 18 20
363 20 l357 1 120 116 120 117 3 94 4 93 26 -3 27 -3 3 -104z m600 77 c7 -7
12 -19 12 -27 0 -16 118 -141 133 -141 5 0 22 11 39 25 21 18 41 25 72 25 79
0 129 -66 107 -141 -30 -98 -166 -101 -207 -4 -10 24 -21 35 -34 35 -13 0 -53
33 -103 86 -101 106 -104 110 -81 135 20 22 44 25 62 7z m-118 -93 c4 -21 41
-67 131 -160 70 -71 139 -145 154 -163 28 -33 28 -58 0 -69 -20 -7 -36 8 -221
205 -115 122 -144 158 -144 180 0 37 8 44 45 40 25 -2 31 -8 35 -33z m670 -5
c29 -29 26 -74 -7 -99 -60 -48 -131 30 -83 92 26 32 62 35 90 7z m-2605 -45
c0 -27 -3 -30 -30 -30 -21 0 -31 5 -33 18 -5 25 17 49 42 45 16 -2 21 -10 21
-33z m3178 13 c8 -12 7 -21 -2 -32 -19 -22 -48 -20 -61 5 -23 41 38 68 63 27z
m-3225 -87 c8 -4 12 -19 10 -32 -2 -18 -9 -24 -28 -24 -28 0 -39 27 -20 50 14
17 20 18 38 6z m3257 -26 c0 -25 -4 -30 -24 -30 -32 0 -49 28 -31 50 7 9 23
15 34 13 16 -2 21 -10 21 -33z m-2738 -7 c28 -26 30 -61 3 -88 -33 -33 -76
-26 -99 17 -15 30 -14 36 10 67 25 32 55 33 86 4z m371 3 c8 -5 12 -17 10 -27
-3 -17 -42 -20 -240 -14 -12 0 -9 25 4 38 14 14 205 17 226 3z m1821 -35 c40
-1 57 -6 65 -18 15 -25 -3 -52 -38 -56 -22 -3 -26 -8 -26 -34 0 -62 -72 -118
-134 -102 -38 9 -86 68 -86 105 0 70 65 125 130 113 19 -4 59 -8 89 -8z m-891
-22 c4 -27 -21 -47 -48 -39 -20 6 -28 44 -13 59 15 15 58 1 61 -20z m-104 -65
c14 -11 26 -25 26 -31 0 -6 53 -68 118 -137 64 -69 139 -151 166 -181 28 -30
96 -103 152 -162 l103 -108 176 0 c139 0 175 -3 175 -13 0 -11 -31 -13 -157
-10 -87 2 -169 6 -182 9 -13 3 -75 55 -139 117 -84 83 -120 111 -136 109 -17
-2 -48 25 -127 110 -58 62 -121 130 -139 151 -26 30 -39 38 -59 34 -73 -14
-118 85 -54 122 27 16 48 13 77 -10z m-1721 -10 c15 -24 1 -49 -27 -49 -29 0
-44 33 -25 56 15 18 38 15 52 -7z m3271 8 c26 -19 13 -57 -19 -57 -28 0 -43
34 -25 55 15 18 21 19 44 2z m-1162 -48 c5 -15 -134 -150 -149 -145 -24 10
-13 30 49 93 59 59 92 77 100 52z m327 -16 c12 -23 -4 -53 -29 -53 -25 0 -41
29 -29 52 12 23 45 23 58 1z m-251 -55 c10 -10 1 -24 -44 -66 l-58 -52 32 -33
32 -33 74 73 c52 52 78 72 89 67 10 -3 17 -10 17 -15 0 -5 -32 -41 -71 -80
-38 -39 -69 -74 -67 -79 2 -4 29 -36 61 -69 52 -54 63 -61 98 -61 38 0 38 0
22 -20 -10 -11 -26 -20 -36 -20 -11 0 -54 34 -97 77 -43 42 -91 82 -107 88
-15 7 -46 31 -67 54 l-39 40 53 58 c81 88 87 92 108 71z m-959 -34 c12 -15 21
-34 21 -44 0 -27 -39 -70 -64 -70 -13 0 -35 9 -49 20 -19 15 -40 20 -85 20
-45 0 -61 4 -66 16 -10 27 3 34 61 34 47 0 59 4 79 25 31 34 76 33 103 -1z
m1560 4 c11 -30 -4 -58 -32 -58 -27 0 -47 17 -47 40 0 42 65 56 79 18z m-264
-12 c38 -16 55 -42 55 -83 0 -22 -8 -32 -36 -45 -46 -24 -89 -23 -130 3 -40
24 -44 54 -13 93 36 45 70 54 124 32z m-2531 -38 c8 -14 7 -21 -6 -34 -30 -30
-75 9 -48 42 16 18 39 15 54 -8z m1916 -219 c322 -343 323 -345 317 -388 -5
-29 -22 -51 -91 -116 l-86 -80 -2 -120 -3 -120 -25 0 -25 0 -3 134 -3 134 86
83 c47 45 85 90 85 99 0 10 -62 81 -138 159 -76 77 -191 198 -256 269 l-118
127 -73 0 c-76 0 -103 14 -91 45 4 12 25 15 103 15 l98 0 225 -241z m1379 224
c13 -24 -13 -53 -40 -46 -18 5 -27 42 -12 56 12 13 42 7 52 -10z m-541 -75
c17 -17 15 -53 -3 -68 -12 -10 -21 -10 -40 -2 -40 19 -29 82 15 82 9 0 21 -5
28 -12z m-1429 -108 c32 -33 56 -50 73 -50 33 0 61 -22 56 -46 -2 -15 -13 -20
-51 -22 -45 -3 -50 -1 -106 52 l-58 56 -234 0 c-185 0 -239 3 -254 14 -16 12
-17 16 -6 30 12 14 47 16 273 16 l259 0 48 -50z m-1311 8 c5 -23 -22 -50 -42
-42 -16 6 -22 45 -9 58 13 13 48 1 51 -16z m3267 -7 c0 -34 -32 -52 -50 -27
-19 25 -2 58 28 54 16 -2 22 -10 22 -27z m-880 -11 c0 -18 -6 -26 -23 -28 -13
-2 -25 3 -28 12 -10 26 4 48 28 44 17 -2 23 -10 23 -28z m-2377 -72 c7 -7 11
-21 11 -32 -1 -17 -2 -18 -6 -3 -3 11 -14 17 -35 17 -26 0 -29 2 -18 15 15 18
32 19 48 3z m3239 -4 c2 -6 -9 -11 -27 -12 -29 -1 -37 7 -23 22 10 10 46 3 50
-10z m-517 -9 c7 -8 10 -22 6 -30 -4 -12 -31 -15 -160 -15 -141 0 -156 2 -165
18 -19 36 5 42 160 42 117 0 149 -3 159 -15z m515 -35 c-3 -5 -16 -10 -28 -9
-21 0 -21 1 -2 9 28 12 37 12 30 0z m-1357 -142 c7 -7 12 -25 12 -40 0 -22 -6
-31 -27 -39 -16 -5 -54 -36 -85 -67 l-58 -56 0 -222 c0 -122 -3 -229 -6 -238
-8 -22 -41 -20 -54 3 -6 12 -10 109 -10 247 l0 228 75 75 c41 41 75 80 75 86
0 18 22 35 45 35 12 0 26 -5 33 -12z m-814 -14 c20 -19 20 -29 0 -48 -12 -12
-20 -13 -35 -6 -21 12 -25 40 -7 58 16 16 23 15 42 -4z m-310 -9 c8 -21 -3
-43 -25 -50 -27 -9 -39 2 -39 36 0 25 4 29 29 29 16 0 31 -6 35 -15z m1890
-11 c30 -30 13 -74 -29 -74 -60 0 -59 88 2 90 6 0 19 -7 27 -16z m-626 -80 c3
-27 -6 -39 -67 -96 l-71 -66 0 -171 c0 -153 -2 -171 -18 -180 -11 -6 -24 -6
-35 0 -15 9 -17 30 -17 185 l0 176 65 67 c36 37 65 74 65 82 0 24 23 40 50 37
20 -2 26 -9 28 -34z m342 26 c0 -6 19 -31 41 -55 41 -44 43 -45 106 -45 48 0
65 -4 69 -15 12 -32 -15 -45 -92 -45 -71 0 -76 1 -114 37 -85 76 -102 133 -39
133 16 0 29 -5 29 -10z m-1522 -153 c34 -60 62 -112 62 -115 0 -4 -17 -7 -37
-6 -37 1 -39 3 -83 82 -25 45 -47 82 -50 82 -3 0 -22 -34 -43 -75 -40 -81 -48
-88 -96 -83 l-31 3 65 110 c61 105 66 110 102 115 21 3 41 3 44 0 3 -3 34 -54
67 -113z m242 -2 l0 -115 -35 0 -35 0 0 115 0 115 35 0 35 0 0 -115z m304 20
c5 -15 -17 -38 -40 -41 -23 -4 -37 32 -19 49 16 17 51 12 59 -8z m1030 -81 c9
-3 16 -16 16 -28 0 -47 -53 -63 -72 -21 -18 39 12 66 56 49z m-145 -65 c43
-42 43 -98 2 -140 -65 -64 -171 -20 -171 71 0 92 104 134 169 69z m-1934 -61
c5 4 5 2 2 -4 -6 -11 27 -67 67 -114 14 -16 15 -20 4 -11 -21 16 -108 136
-108 148 0 4 7 0 14 -9 7 -10 17 -14 21 -10z m864 -17 c13 -24 -9 -57 -33 -48
-23 9 -31 34 -16 52 17 20 37 19 49 -4z m-281 -12 c2 -13 -3 -15 -23 -12 -32
7 -34 36 -3 31 13 -2 24 -10 26 -19z m130 -83 c2 -10 -1 -23 -7 -29 -7 -7 -8
-3 -4 13 6 21 4 23 -25 17 -25 -5 -30 -3 -25 9 8 22 57 14 61 -10z m-324 -73
c183 -173 406 -281 675 -327 360 -61 780 68 1055 325 43 40 83 69 95 69 28 0
27 -11 -3 -30 -13 -8 -66 -47 -118 -86 -51 -39 -109 -79 -128 -90 -19 -10 -44
-27 -56 -36 -27 -24 -181 -90 -285 -123 -423 -133 -932 -16 -1257 292 -29 27
-56 45 -59 40 -3 -5 -10 -2 -15 7 -9 15 -4 36 9 36 3 0 42 -35 87 -77z m2076
73 c0 -2 -8 -10 -17 -17 -16 -13 -17 -12 -4 4 13 16 21 21 21 13z m-410 -361
c19 -23 2 -37 -133 -104 -176 -86 -421 -151 -574 -151 -61 0 -64 1 -61 22 3
26 20 30 169 47 135 15 312 70 449 140 63 32 120 59 126 60 6 0 17 -6 24 -14z
m-1459 -44 c155 -81 341 -133 564 -158 61 -7 70 -11 70 -28 0 -17 -8 -20 -60
-23 -143 -8 -390 55 -581 147 -125 60 -140 71 -130 96 9 25 39 17 137 -34z
m266 -287 c-3 -3 -12 -4 -19 -1 -8 3 -5 6 6 6 11 1 17 -2 13 -5z m40 -10 c-3
-3 -12 -4 -19 -1 -8 3 -5 6 6 6 11 1 17 -2 13 -5z m50 -10 c-3 -3 -12 -4 -19
-1 -8 3 -5 6 6 6 11 1 17 -2 13 -5z"/>
<path d="M2666 6351 c-34 -38 12 -94 59 -73 29 13 37 45 18 71 -18 26 -55 27
-77 2z"/>
<path d="M1820 6110 c-26 -48 25 -89 63 -52 19 20 19 22 3 46 -20 31 -51 34
-66 6z"/>
<path d="M1466 6054 c-9 -8 -16 -22 -16 -29 0 -17 27 -45 44 -45 19 0 36 22
36 45 0 41 -36 58 -64 29z"/>
<path d="M850 5565 c-17 -21 -4 -62 22 -71 16 -5 27 -1 40 16 22 27 22 34 2
54 -20 20 -48 20 -64 1z"/>
<path d="M2288 5994 c-58 -31 -67 -106 -17 -148 40 -34 80 -34 119 2 51 45 37
129 -26 152 -33 13 -44 12 -76 -6z m77 -79 c0 -24 -5 -31 -24 -33 -32 -5 -54
23 -40 50 7 13 19 18 37 16 23 -2 27 -8 27 -33z"/>
<path d="M1346 5501 c-24 -26 -17 -70 15 -93 50 -37 105 17 83 81 -12 35 -71
42 -98 12z"/>
<path d="M2602 5738 c-34 -34 6 -90 48 -68 35 19 20 80 -20 80 -9 0 -21 -5
-28 -12z"/>
<path d="M1566 4631 c-21 -23 -14 -57 13 -66 45 -14 74 32 40 66 -24 24 -32
24 -53 0z"/>
<path d="M2612 5458 c-36 -36 4 -101 48 -78 37 20 21 90 -20 90 -9 0 -21 -5
-28 -12z"/>
<path d="M3521 5394 c0 -11 3 -14 6 -6 3 7 2 16 -1 19 -3 4 -6 -2 -5 -13z"/>
<path d="M2852 5298 c-18 -18 -15 -45 8 -68 36 -36 79 5 60 55 -10 27 -47 34
-68 13z"/>
<path d="M2678 5173 c7 -3 16 -2 19 1 4 3 -2 6 -13 5 -11 0 -14 -3 -6 -6z"/>
<path d="M2722 5058 c-17 -17 -15 -42 6 -61 25 -23 39 -21 57 7 13 19 14 29 5
45 -12 23 -49 28 -68 9z"/>
<path d="M3510 5071 c0 -10 19 -25 25 -20 1 2 -3 10 -11 17 -8 7 -14 8 -14 3z"/>
<path d="M3500 4880 c0 -5 7 -10 16 -10 8 0 12 5 9 10 -3 6 -10 10 -16 10 -5
0 -9 -4 -9 -10z"/>
<path d="M2625 4880 c3 -5 13 -10 21 -10 8 0 12 5 9 10 -3 6 -13 10 -21 10 -8
0 -12 -4 -9 -10z"/>
<path d="M1318 4588 c9 -9 15 -9 24 0 9 9 7 12 -12 12 -19 0 -21 -3 -12 -12z"/>
<path d="M995 4589 c-10 -15 1 -23 20 -15 9 3 13 10 10 16 -8 13 -22 13 -30
-1z"/>
<path d="M2153 4050 c0 -25 2 -35 4 -22 2 12 2 32 0 45 -2 12 -4 2 -4 -23z"/>
<path d="M2112 4030 c0 -14 2 -19 5 -12 2 6 2 18 0 25 -3 6 -5 1 -5 -13z"/>
<path d="M2462 4218 c-7 -7 -12 -22 -12 -35 0 -28 36 -46 63 -31 33 17 15 78
-23 78 -9 0 -21 -5 -28 -12z"/>
<path d="M1440 4166 c0 -8 4 -17 8 -20 13 -8 35 11 28 23 -10 16 -36 14 -36
-3z"/>
<path d="M2635 3710 c-3 -5 -2 -10 4 -10 5 0 13 5 16 10 3 6 2 10 -4 10 -5 0
-13 -4 -16 -10z"/>
<path d="M2520 3649 c-30 -16 -44 -27 -31 -23 24 6 91 43 91 50 0 6 0 6 -60
-27z"/>
<path d="M2268 3553 c7 -3 16 -2 19 1 4 3 -2 6 -13 5 -11 0 -14 -3 -6 -6z"/>
<path d="M2003 3503 c9 -2 23 -2 30 0 6 3 -1 5 -18 5 -16 0 -22 -2 -12 -5z"/>
<path d="M1220 3650 c8 -5 20 -10 25 -10 6 0 3 5 -5 10 -8 5 -19 10 -25 10 -5
0 -3 -5 5 -10z"/>
<path d="M1267 3629 c7 -7 15 -10 18 -7 3 3 -2 9 -12 12 -14 6 -15 5 -6 -5z"/>
<path d="M1648 3513 c6 -2 18 -2 25 0 6 3 1 5 -13 5 -14 0 -19 -2 -12 -5z"/>
<path d="M1733 3503 c9 -2 25 -2 35 0 9 3 1 5 -18 5 -19 0 -27 -2 -17 -5z"/>
<path d="M905 6730 c-3 -6 1 -7 9 -4 18 7 21 14 7 14 -6 0 -13 -4 -16 -10z"/>
</g>
</svg>
